<?xml version="1.0" encoding="utf-8"?>
<!-- Copyright (c) 2015 Pixely (https://pixely.jp/) - MIT License -->
<!DOCTYPE svg PUBLIC "-//W3C//DTD SVG 1.1//EN" "http://www.w3.org/Graphics/SVG/1.1/DTD/svg11.dtd" [
    <!ENTITY st0 "fill:#DDDDDD;">
    <!ENTITY st1 "fill:#888888;">
    <!ENTITY st2 "fill:#FFFFFF;">
    <!ENTITY st3 "fill:#D6F2D1;">
    <!ENTITY st4 "fill:#F7F7D6;">
    <!ENTITY st5 "fill:#E783BB;">
    <!ENTITY st6 "fill:#EEEEEE;">
]>
<svg version="1.1" xmlns="http://www.w3.org/2000/svg" xmlns:xlink="http://www.w3.org/1999/xlink" x="0px" y="0px"
     viewBox="0 0 16 16" enable-background="new 0 0 16 16" xml:space="preserve">
    <g>
        <path style="&st0;" d="M8,15c-3.86,0-7-3.141-7-7c0-3.86,3.14-7,7-7c3.859,0,7,3.14,7,7C15,11.859,11.859,15,8,15z M8,6
            C6.897,6,6,6.897,6,8c0,1.103,0.897,2,2,2c1.103,0,2-0.897,2-2C10,6.897,9.103,6,8,6z"/>
        <path style="&st1;" d="M8,1.5c3.584,0,6.5,2.916,6.5,6.5s-2.916,6.5-6.5,6.5S1.5,11.584,1.5,8S4.416,1.5,8,1.5 M8,10.5
            c1.378,0,2.5-1.122,2.5-2.5S9.378,5.5,8,5.5S5.5,6.622,5.5,8S6.622,10.5,8,10.5 M8,0.5C3.858,0.5,0.5,3.858,0.5,8
            s3.358,7.5,7.5,7.5s7.5-3.358,7.5-7.5S12.142,0.5,8,0.5L8,0.5z M8,9.5C7.172,9.5,6.5,8.828,6.5,8S7.172,6.5,8,6.5S9.5,7.172,9.5,8
            S8.828,9.5,8,9.5L8,9.5z"/>
    </g>
    <g>
        <path style="&st2;" d="M8,6c1.103,0,2,0.897,2,2s-0.897,2-2,2S6,9.103,6,8S6.897,6,8,6 M8,5C6.343,5,5,6.343,5,8s1.343,3,3,3
            s3-1.343,3-3S9.657,5,8,5L8,5z"/>
    </g>
    <path style="&st3;" d="M14.252,9.76l-3.364-0.947c-0.072,0.256-0.189,0.495-0.327,0.725l3.006,1.805
        C13.862,10.853,14.094,10.323,14.252,9.76z"/>
    <path style="&st3;" d="M1.748,6.24l3.364,0.947c0.072-0.256,0.189-0.495,0.327-0.725L2.433,4.658
        C2.138,5.147,1.906,5.677,1.748,6.24z"/>
    <path style="&st4;" d="M10.59,9.514c-0.134,0.229-0.308,0.432-0.499,0.619l2.457,2.507c0.411-0.403,0.765-0.862,1.058-1.362
        L10.59,9.514z"/>
    <path style="&st4;" d="M2.394,4.722L5.41,6.486c0.134-0.229,0.308-0.432,0.499-0.619L3.452,3.36
        C3.041,3.763,2.687,4.222,2.394,4.722z"/>
    <path style="&st5;" d="M10.121,10.121c-0.188,0.188-0.407,0.339-0.639,0.472l1.741,3.046c0.503-0.288,0.966-0.637,1.373-1.044
        L10.121,10.121z"/>
    <path style="&st5;" d="M5.879,5.879c0.188-0.188,0.407-0.339,0.639-0.472L4.777,2.36C4.274,2.648,3.811,2.997,3.404,3.404
        L5.879,5.879z"/>
    <path style="&st6;" d="M10.594,6.518l3.046-1.741c-0.288-0.503-0.637-0.966-1.044-1.373l-2.475,2.475
        C10.309,6.066,10.461,6.286,10.594,6.518z"/>
    <path style="&st6;" d="M5.406,9.482L2.36,11.223c0.288,0.503,0.637,0.966,1.044,1.373l2.475-2.475
        C5.691,9.934,5.539,9.714,5.406,9.482z"/>
</svg>
