<?xml version="1.0" encoding="utf-8"?>
<!-- Copyright (c) 2015 Pixely (https://pixely.jp/) - MIT License -->
<!DOCTYPE svg PUBLIC "-//W3C//DTD SVG 1.1//EN" "http://www.w3.org/Graphics/SVG/1.1/DTD/svg11.dtd" [
    <!ENTITY st0 "fill:#46A8D3;">
    <!ENTITY st1 "fill:#ABC67B;">
]>
<svg version="1.1" xmlns="http://www.w3.org/2000/svg" xmlns:xlink="http://www.w3.org/1999/xlink" x="0px" y="0px"
     viewBox="0 0 16 16" enable-background="new 0 0 16 16" xml:space="preserve">
    <circle style="&st0;" cx="8" cy="8" r="7.5"/>
    <g>
        <polygon style="&st1;" points="10.468,10.439 10.839,9.815 11.452,9.429 10.824,10.274"/>
        <polygon style="&st1;" points="13.157,8.485 12.862,8.893 12.998,8.957 13.306,8.593"/>
        <polygon style="&st1;" points="12.18,10.436 12.044,11.014 11.885,11.143 11.907,11.464 12.112,11.464 12.294,10.95 12.294,10.457"/>
        <polygon style="&st1;" points="14.657,9.429 14.335,10.867 13.784,11.186 13.573,10.955 12.93,10.8 12.93,9.408 12.748,9.364 
            12.794,9.215 13.169,9.1 13.703,9.429 13.907,9.215"/>
        <polygon style="&st1;" points="6.691,2.081 6.585,1.773 7.169,1.171 7.489,1.08 8.03,1.125"/>
        <polygon style="&st1;" points="7.936,2.036 7.653,2.036 7.608,1.725 7.959,1.703"/>
        <polygon style="&st1;" points="8.547,1.392 8.429,1.036 9.063,1.258 9.337,1.392"/>
        <path style="&st1;" d="M10.059,1.324L9.293,1.778L7.588,2.463l0.318,1.436L7.429,4.693L5.883,5.764l0.046,0.599l1.001,1.05
            l1.358-0.119l0.943,3.622l0.711-0.052l0.733-1.233l0.924-0.564l1.168-1.631l0.044,0.261l0.325,0.231l-0.19-0.799l-0.81,0.071
            L11.153,5.46l1.238,1.682l0.957-0.456l-0.026,0.709l0.21,0.179l0.693-0.545l-0.311,1.121l-0.143-0.263l-0.388,0.271l0.364,0.443
            l0.661-0.327l0.19-0.995l0.361,1.051c0.005-0.113,0.017-0.224,0.017-0.339C14.975,4.859,12.903,2.205,10.059,1.324z"/>
        <path style="&st1;" d="M2.58,11.345l0.785-1.337l0.629-0.075l0.315-0.977L4.85,8.563L3.968,7.797L3.943,7.44L1.606,6.434
            l0.189-0.349l0.116-0.959l0.392-0.305l0.101,0.204l-0.45,0.406l0.334,0.276l0.214-0.069l-0.3-0.222L3.045,4.37l1.744-0.93
            l0.64-0.059l0.159-0.508l0.145,0.204l0.49,0.094L6.067,2.917l1.294-0.044l0.181-0.293L6.039,2.292l0.472-0.833L6.339,1.304
            L5.706,2.041L5.152,2.002L5.478,1.64L5.068,1.669c-1.895,0.882-3.328,2.589-3.836,4.66l0.292,0.267L1.074,7.188
            c-0.03,0.263-0.049,0.529-0.049,0.801c0,1.763,0.663,3.371,1.747,4.601l0.374-0.213L2.58,11.345z"/>
        <path style="&st1;" d="M10.248,14.586l-1.735-0.187L8.17,14.221l-0.818,0.172l-0.886-0.217l-0.469,0.047l-0.054-0.305l-0.159-0.022
            l-0.152,0.27l-0.737,0.06C5.833,14.695,6.884,14.964,8,14.964C8.787,14.964,9.541,14.828,10.248,14.586z"/>
    </g>
</svg>
