<?xml version="1.0" encoding="utf-8"?>
<!-- Copyright (c) 2015 Pixely (https://pixely.jp/) - MIT License -->
<!DOCTYPE svg PUBLIC "-//W3C//DTD SVG 1.1//EN" "http://www.w3.org/Graphics/SVG/1.1/DTD/svg11.dtd">
<svg version="1.1" xmlns="http://www.w3.org/2000/svg" xmlns:xlink="http://www.w3.org/1999/xlink" x="0px" y="0px"
     viewBox="0 0 16 16" enable-background="new 0 0 16 16" xml:space="preserve">
    <g>
        <polygon fill="#BF7BE1" points="1,15 1,1 13,1 15,3 15,15"/>
    </g>
    <path fill="#FFFFFF" d="M12.5,8h-9C3.2,8,3,8.2,3,8.5v6h10v-6C13,8.2,12.8,8,12.5,8z"/>
    <path fill="#A966D8" d="M3.5,6.5H11c0.3,0,0.5-0.2,0.5-0.6V1.5H3v4.4C3,6.3,3.2,6.5,3.5,6.5z"/>
    <path fill="#D7D7D7" d="M5,1.5v4C5,5.8,5.2,6,5.5,6h5C10.8,6,11,5.8,11,5.5v-4H5z M10,5.5H8.5V2H10V5.5z"/>
</svg>
