<?xml version="1.0" encoding="iso-8859-1"?>
<!-- Generator: Adobe Illustrator 18.1.1, SVG Export Plug-In . SVG Version: 6.00 Build 0)  -->
<!DOCTYPE svg PUBLIC "-//W3C//DTD SVG 1.1//EN" "http://www.w3.org/Graphics/SVG/1.1/DTD/svg11.dtd" [
	<!ENTITY st0 "fill:#9153BC;">
	<!ENTITY st1 "fill:#BF7BE1;">
	<!ENTITY st2 "fill:#FFFFFF;">
	<!ENTITY st3 "fill:#777777;">
	<!ENTITY st4 "fill:#A966D8;">
	<!ENTITY st5 "fill:#D7D7D7;">
	<!ENTITY st6 "fill:#DDDDDD;">
]>
<svg version="1.1" id="&#x30EC;&#x30A4;&#x30E4;&#x30FC;_1"
	 xmlns="http://www.w3.org/2000/svg" xmlns:xlink="http://www.w3.org/1999/xlink" x="0px" y="0px" viewBox="0 0 16 16"
	 style="enable-background:new 0 0 16 16;" xml:space="preserve">
<g>
	<path style="&st0;" d="M12.586,2L14,3.414V14H2V2H12.586 M13,1H1v14h14V3L13,1L13,1z"/>
	<polygon style="&st1;" points="1.5,14.5 1.5,1.5 12.793,1.5 14.5,3.207 14.5,14.5 	"/>
</g>
<path style="&st2;" d="M12.5,8h-9C3.224,8,3,8.224,3,8.5V15h10V8.5C13,8.224,12.776,8,12.5,8z"/>
<rect x="3" y="14.5" style="&st3;" width="10" height="0.5"/>
<path style="&st4;" d="M3.5,6.5H11c0.276,0,0.5-0.249,0.5-0.556V1.5H3v4.444C3,6.251,3.224,6.5,3.5,6.5z"/>
<path style="&st5;" d="M5.5,6h5C10.776,6,11,5.776,11,5.5V1H5v4.5C5,5.776,5.224,6,5.5,6z"/>
<rect x="8.5" y="2" style="&st4;" width="1.5" height="3"/>
<rect x="5" y="1" style="&st3;" width="6" height="0.5"/>
<polygon style="&st6;" points="13,14.5 3,14.5 3,13.333 13,11 "/>
</svg>
