<?xml version="1.0" encoding="utf-8"?>
<!-- Copyright (c) 2015 Pixely (https://pixely.jp/) - MIT License -->
<!DOCTYPE svg PUBLIC "-//W3C//DTD SVG 1.1//EN" "http://www.w3.org/Graphics/SVG/1.1/DTD/svg11.dtd">
<svg version="1.1" xmlns="http://www.w3.org/2000/svg" xmlns:xlink="http://www.w3.org/1999/xlink" x="0px" y="0px"
     viewBox="0 0 16 16" enable-background="new 0 0 16 16" xml:space="preserve">
    <path fill="#5ED368" d="M10,3"/>
    <g>
        <path fill="#444444" d="M1,12.1l0.4,2.5c0,0.2,0.2,0.4,0.5,0.4h12.2c0.2,0,0.5-0.2,0.5-0.4L15,12v0L14,1.5C14,1.2,13.8,1,13.5,1
            H2.5C2.2,1,2,1.2,2,1.5L1,11.9C1,12,1,12,1,12.1z"/>
    </g>
    <g>
        <polygon fill="#DDDDDD" points="13.6,1.5 2.5,1.5 1.5,12 14.5,12"/>
    </g>
    <rect x="12" y="13" fill="#70B247" width="1" height="1"/>
    <ellipse fill="#FCFCFC" cx="8" cy="7.6" rx="5.4" ry="3.9"/>
    <ellipse fill="#DDDDDD" cx="8" cy="7.5" rx="5" ry="3.5"/>
    <ellipse fill="#FCFCFC" cx="8" cy="7.5" rx="1.4" ry="1"/>
    <polygon fill="#FCFCFC" points="7,3.5 2.9,3.5 3,2 7,2 "/>
</svg>
