<?xml version="1.0" encoding="utf-8"?>
<!-- Copyright (c) 2015 Pixely (https://pixely.jp/) - MIT License -->
<!DOCTYPE svg PUBLIC "-//W3C//DTD SVG 1.1//EN" "http://www.w3.org/Graphics/SVG/1.1/DTD/svg11.dtd" [
    <!ENTITY st0 "fill:#46A8D3;">
    <!ENTITY st1 "fill:#FFFFFF;">
]>
<svg version="1.1" xmlns="http://www.w3.org/2000/svg" xmlns:xlink="http://www.w3.org/1999/xlink" x="0px" y="0px"
     viewBox="0 0 16 16" style="enable-background:new 0 0 16 16;" xml:space="preserve">
    <circle style="&st0;" cx="8" cy="8" r="7.5"/>
    <g>
        <path style="&st1;" d="M8,2.236c3.178,0,5.764,2.586,5.764,5.764S11.178,13.764,8,13.764S2.236,11.178,2.236,8S4.822,2.236,8,2.236
            M8,1.036C4.154,1.036,1.036,4.154,1.036,8S4.154,14.964,8,14.964S14.964,11.846,14.964,8S11.846,1.036,8,1.036L8,1.036z"/>
    </g>
    <g>
        <path style="&st1;" d="M10.009,4.637C9.564,4.264,8.958,4.074,8.208,4.074c-0.325,0-0.673,0.037-1.035,0.109
            C6.814,4.255,6.511,4.338,6.272,4.43l-0.15,0.058v0.161V5.64v0.234h0.234h0.049h0.067l0.057-0.036
            c0.166-0.104,0.4-0.209,0.695-0.313C7.51,5.425,7.819,5.374,8.14,5.374c0.34,0,0.616,0.076,0.822,0.225
            c0.185,0.134,0.275,0.34,0.275,0.629c0,0.236-0.042,0.428-0.124,0.571C9.023,6.957,8.891,7.113,8.723,7.264
            C8.577,7.401,8.389,7.536,8.161,7.669C7.917,7.811,7.69,7.942,7.48,8.061L7.362,8.129v0.136v1.482v0.234h0.234h0.87H8.7V9.747
            V8.789c0.227-0.134,0.446-0.272,0.651-0.413c0.248-0.17,0.471-0.355,0.662-0.549c0.204-0.211,0.369-0.454,0.493-0.725
            c0.127-0.278,0.191-0.596,0.191-0.946C10.698,5.532,10.466,5.021,10.009,4.637z"/>
        <polygon style="&st1;" points="7.552,10.431 7.318,10.431 7.318,10.666 7.318,11.691 7.318,11.926 7.552,11.926 8.544,11.926 
            8.778,11.926 8.778,11.691 8.778,10.666 8.778,10.431 8.544,10.431"/>
    </g>
</svg>
