<?xml version="1.0" encoding="iso-8859-1"?>
<!-- Generator: Adobe Illustrator 18.1.1, SVG Export Plug-In . SVG Version: 6.00 Build 0)  -->
<!DOCTYPE svg PUBLIC "-//W3C//DTD SVG 1.1//EN" "http://www.w3.org/Graphics/SVG/1.1/DTD/svg11.dtd" [
	<!ENTITY st0 "fill:#DAEEF6;">
	<!ENTITY st1 "fill:#46A8D3;">
]>
<svg version="1.1" xmlns="http://www.w3.org/2000/svg" xmlns:xlink="http://www.w3.org/1999/xlink" x="0px" y="0px"
	 viewBox="0 0 16 16" style="enable-background:new 0 0 16 16;" xml:space="preserve">
<circle style="&st0;" cx="8" cy="8" r="7"/>
<g>
	<g>
		<path style="&st1;" d="M7.997,0.5c0.689,0,1.354,0.09,1.995,0.269s1.238,0.432,1.792,0.758c0.554,0.326,1.06,0.717,1.516,1.174
			c0.456,0.456,0.848,0.962,1.174,1.516s0.579,1.152,0.758,1.792S15.5,7.314,15.5,8.003s-0.09,1.353-0.269,1.991
			c-0.179,0.638-0.432,1.234-0.758,1.789c-0.326,0.554-0.717,1.06-1.174,1.516c-0.456,0.456-0.962,0.848-1.516,1.174
			c-0.554,0.326-1.152,0.579-1.792,0.758S8.686,15.5,7.997,15.5s-1.353-0.09-1.991-0.269s-1.234-0.432-1.789-0.758
			s-1.06-0.717-1.516-1.174c-0.456-0.456-0.848-0.962-1.174-1.516c-0.326-0.554-0.579-1.15-0.758-1.789
			C0.59,9.357,0.5,8.693,0.5,8.003s0.09-1.354,0.269-1.995s0.432-1.238,0.758-1.792s0.717-1.06,1.174-1.516s0.962-0.848,1.516-1.174
			s1.15-0.579,1.789-0.758S7.307,0.5,7.997,0.5z M2.505,5.272C2.3,5.686,2.143,6.122,2.034,6.578
			C1.924,7.035,1.869,7.51,1.869,8.003h2.613c0-1.001,0.098-1.912,0.293-2.732H2.505z M1.904,8.681
			C1.96,9.184,2.073,9.664,2.243,10.12c0.17,0.456,0.388,0.887,0.653,1.293h2.047c-0.256-0.796-0.405-1.707-0.447-2.732H1.904z
			 M5.425,3.518c0.27-0.522,0.603-1.006,0.999-1.453C5.679,2.261,5.002,2.582,4.391,3.029s-1.12,0.985-1.53,1.614h2.096
			c0.065-0.2,0.136-0.394,0.213-0.58C5.247,3.877,5.332,3.695,5.425,3.518z M5.425,12.552c-0.047-0.084-0.09-0.168-0.129-0.252
			c-0.04-0.084-0.078-0.172-0.115-0.265H3.378c0.391,0.447,0.837,0.831,1.338,1.153c0.501,0.321,1.044,0.564,1.631,0.727
			c-0.168-0.196-0.33-0.405-0.486-0.629C5.706,13.062,5.561,12.817,5.425,12.552z M5.712,5.272C5.605,5.654,5.523,6.069,5.467,6.519
			S5.384,7.463,5.384,8.003h5.24c-0.005-0.536-0.042-1.029-0.112-1.481c-0.07-0.452-0.165-0.869-0.286-1.251H5.712z M5.398,8.681
			c0.023,0.554,0.079,1.055,0.168,1.502c0.088,0.447,0.203,0.857,0.342,1.23h4.094c0.163-0.377,0.296-0.789,0.398-1.237
			s0.17-0.946,0.203-1.495H5.398z M7.934,1.862c-0.2,0.168-0.396,0.346-0.587,0.534C7.156,2.585,6.973,2.794,6.798,3.022
			C6.624,3.25,6.461,3.497,6.309,3.763c-0.151,0.265-0.285,0.559-0.402,0.88h4.094C9.867,4.331,9.72,4.042,9.561,3.777
			s-0.325-0.511-0.5-0.737S8.709,2.604,8.527,2.411C8.346,2.218,8.169,2.035,7.997,1.862H7.934z M8.087,14.138
			c0.284-0.303,0.566-0.622,0.845-0.957c0.279-0.335,0.536-0.717,0.769-1.146H6.173c0.224,0.452,0.476,0.845,0.758,1.181
			c0.282,0.335,0.579,0.643,0.891,0.922H8.087z M10.442,3.504c0.205,0.368,0.377,0.748,0.517,1.139h2.187
			c-0.214-0.326-0.456-0.629-0.727-0.908s-0.565-0.531-0.884-0.755c-0.319-0.224-0.66-0.417-1.024-0.58S9.771,2.112,9.38,2.023
			c0.191,0.219,0.375,0.449,0.552,0.692C10.109,2.957,10.279,3.22,10.442,3.504z M10.707,12.035
			c-0.177,0.382-0.373,0.73-0.587,1.044c-0.214,0.314-0.435,0.609-0.664,0.884c0.629-0.154,1.211-0.396,1.747-0.727
			c0.536-0.331,1.011-0.731,1.425-1.202H10.707z M11.497,8.681c-0.028,0.536-0.087,1.029-0.178,1.481
			c-0.091,0.452-0.208,0.869-0.353,1.251h2.138c0.265-0.405,0.484-0.836,0.657-1.293c0.172-0.456,0.286-0.936,0.342-1.439H11.497z
			 M11.161,5.272c0.121,0.424,0.21,0.861,0.265,1.31s0.086,0.923,0.091,1.422h2.62c0-0.494-0.055-0.969-0.164-1.425
			c-0.109-0.456-0.267-0.892-0.472-1.306H11.161z"/>
	</g>
</g>
</svg>
