<?xml version="1.0" encoding="utf-8"?>
<!-- Copyright (c) 2015 Pixely (https://pixely.jp/) - MIT License -->
<!DOCTYPE svg PUBLIC "-//W3C//DTD SVG 1.1 Basic//EN" "http://www.w3.org/Graphics/SVG/1.1/DTD/svg11-basic.dtd" [
    <!ENTITY st0 "fill:#A83833;">
    <!ENTITY st1 "fill:#F9F8F2;">
    <!ENTITY st2 "fill:#E0C968;">
]>
<svg version="1.1" baseProfile="basic" xmlns="http://www.w3.org/2000/svg" xmlns:xlink="http://www.w3.org/1999/xlink" x="0px" y="0px"
     viewBox="0 0 16 16" xml:space="preserve">
    <rect x="12.208" y="0.914" style="&st0;" width="0.588" height="1.224"/>
    <rect x="3" y="2" style="&st0;" width="10" height="13"/>
    <polygon style="&st0;" points="12.5,0.5 3,2 12.5,2 "/>
    <polygon style="&st1;" points="12.7,1 3.381,2 12.7,2 "/>
    <rect x="7.5" y="13.5" style="&st2;" width="1" height="0.5"/>
    <rect x="5.998" y="12" style="&st2;" width="4.004" height="1"/>
    <rect x="5" y="3" style="&st2;" width="6" height="1"/>
    <g>
        <polygon style="&st2;" points="9.058,9.046 9.217,8.778 9.48,8.613 9.21,8.975 	"/>
        <polygon style="&st2;" points="10.211,8.208 10.084,8.383 10.142,8.41 10.274,8.254 	"/>
        <polygon style="&st2;" points="9.792,9.044 9.733,9.292 9.665,9.347 9.675,9.485 9.763,9.485 9.841,9.265 9.841,9.053 	"/>
        <polygon style="&st2;" points="10.854,8.613 10.716,9.229 10.479,9.366 10.389,9.267 10.113,9.2 10.113,8.604 10.035,8.585 
            10.055,8.521 10.216,8.472 10.445,8.613 10.532,8.521 	"/>
        <polygon style="&st2;" points="7.439,5.463 7.393,5.331 7.644,5.072 7.781,5.033 8.013,5.053 	"/>
        <polygon style="&st2;" points="7.972,5.443 7.851,5.443 7.832,5.31 7.982,5.3 	"/>
        <polygon style="&st2;" points="8.234,5.167 8.184,5.015 8.455,5.11 8.573,5.167 	"/>
        <path style="&st2;" d="M8.882,5.138L8.554,5.333L7.823,5.626l0.136,0.616l-0.204,0.34L7.092,7.041l0.02,0.257l0.429,0.45
            l0.582-0.051L8.528,9.25l0.305-0.022l0.314-0.529l0.396-0.242l0.501-0.699l0.019,0.112l0.139,0.099L10.12,7.627l-0.347,0.03
            L9.351,6.911l0.531,0.721l0.41-0.195l-0.011,0.304l0.09,0.077l0.297-0.234l-0.133,0.481l-0.061-0.113l-0.166,0.116l0.156,0.19
            l0.283-0.14l0.081-0.427l0.155,0.451c0.002-0.048,0.007-0.096,0.007-0.145C10.99,6.653,10.102,5.516,8.882,5.138z"/>
        <path style="&st2;" d="M5.676,9.434l0.337-0.573l0.27-0.032L6.417,8.41l0.232-0.168L6.271,7.913L6.261,7.76L5.259,7.329l0.081-0.15
            l0.05-0.411l0.168-0.131l0.043,0.087L5.408,6.899l0.143,0.118l0.092-0.03L5.514,6.892l0.361-0.448l0.748-0.399L6.898,6.02
            l0.068-0.218L7.028,5.89l0.21,0.04L7.171,5.821l0.555-0.019l0.078-0.126L7.159,5.553l0.202-0.357L7.288,5.129L7.016,5.445
            L6.779,5.429l0.14-0.155L6.743,5.286C5.93,5.664,5.316,6.396,5.098,7.284l0.125,0.114L5.031,7.652
            C5.018,7.765,5.01,7.879,5.01,7.995c0,0.756,0.284,1.445,0.749,1.972l0.16-0.091L5.676,9.434z"/>
        <path style="&st2;" d="M8.963,10.823l-0.744-0.08l-0.147-0.076l-0.351,0.074l-0.38-0.093l-0.201,0.02l-0.023-0.131L7.05,10.528
            l-0.065,0.116l-0.316,0.026C7.071,10.87,7.521,10.985,8,10.985C8.337,10.985,8.66,10.927,8.963,10.823z"/>
    </g>
</svg>
