<?xml version="1.0" encoding="iso-8859-1"?>
<!-- Generator: Adobe Illustrator 18.1.1, SVG Export Plug-In . SVG Version: 6.00 Build 0)  -->
<!DOCTYPE svg PUBLIC "-//W3C//DTD SVG 1.1//EN" "http://www.w3.org/Graphics/SVG/1.1/DTD/svg11.dtd" [
	<!ENTITY st0 "fill:#46A8D3;">
]>
<svg version="1.1" xmlns="http://www.w3.org/2000/svg" xmlns:xlink="http://www.w3.org/1999/xlink" x="0px" y="0px"
	 viewBox="0 0 16 16" style="enable-background:new 0 0 16 16;" xml:space="preserve">
<g>
	<path style="&st0;" d="M8.005,9.976c0.352,0,0.627-0.115,0.814-0.34c0.175-0.211,0.265-0.485,0.265-0.814V1.654
		c0-0.335-0.089-0.611-0.267-0.82C8.63,0.612,8.356,0.5,8.005,0.5c-0.347,0-0.617,0.113-0.801,0.336
		c-0.173,0.208-0.26,0.487-0.26,0.827v7.158c0,0.328,0.087,0.601,0.258,0.811C7.387,9.86,7.657,9.976,8.005,9.976z"/>
	<path style="&st0;" d="M14.26,7.33c-0.152-0.538-0.365-1.054-0.638-1.531c-0.274-0.479-0.607-0.922-0.992-1.316
		c-0.385-0.394-0.814-0.74-1.275-1.028l-0.226-0.141l-0.98,1.613l0.226,0.136c0.34,0.206,0.65,0.447,0.92,0.718
		c0.271,0.27,0.506,0.574,0.697,0.903c0.192,0.328,0.341,0.688,0.447,1.07c0.105,0.38,0.158,0.782,0.158,1.198
		c0,0.637-0.119,1.236-0.355,1.781c-0.235,0.548-0.563,1.031-0.974,1.436c-0.41,0.404-0.9,0.725-1.457,0.956
		c-0.555,0.23-1.166,0.347-1.817,0.347c-0.643,0-1.252-0.117-1.808-0.348c-0.556-0.23-1.046-0.551-1.457-0.955
		c-0.411-0.405-0.738-0.888-0.974-1.436c-0.235-0.546-0.354-1.144-0.354-1.781c0-0.413,0.053-0.816,0.158-1.198
		c0.105-0.382,0.255-0.742,0.447-1.07c0.192-0.329,0.426-0.632,0.697-0.903c0.273-0.272,0.582-0.514,0.92-0.717L5.85,4.927
		L4.869,3.314L4.643,3.455C4.181,3.745,3.752,4.091,3.37,4.483C2.984,4.879,2.65,5.322,2.378,5.799
		C2.105,6.278,1.89,6.793,1.74,7.33c-0.151,0.54-0.228,1.104-0.228,1.677c0,0.598,0.078,1.179,0.233,1.729
		c0.153,0.548,0.373,1.068,0.653,1.546c0.279,0.479,0.621,0.922,1.016,1.317c0.396,0.396,0.839,0.737,1.316,1.015
		c0.479,0.28,0.999,0.5,1.547,0.654C6.829,15.422,7.41,15.5,8.005,15.5c0.589,0,1.166-0.078,1.719-0.233
		c0.549-0.154,1.07-0.373,1.546-0.653c0.479-0.279,0.922-0.62,1.317-1.015c0.394-0.394,0.736-0.837,1.016-1.317
		c0.279-0.478,0.498-0.999,0.652-1.546c0.155-0.549,0.233-1.13,0.233-1.729C14.488,8.435,14.411,7.871,14.26,7.33z"/>
</g>
</svg>
