<?xml version="1.0" encoding="utf-8"?>
<!-- Copyright (c) 2015 Pixely (https://pixely.jp/) - MIT License -->
<!DOCTYPE svg PUBLIC "-//W3C//DTD SVG 1.1//EN" "http://www.w3.org/Graphics/SVG/1.1/DTD/svg11.dtd">
<svg version="1.1" xmlns="http://www.w3.org/2000/svg" xmlns:xlink="http://www.w3.org/1999/xlink" x="0px" y="0px"
     viewBox="0 0 16 16" style="enable-background:new 0 0 16 16;" xml:space="preserve">
    <g>
        <polygon fill="#BF7BE1" points="15,1 15,15 3,15 1,13 1,1"/>
    </g>
    <path fill="#FFFFFF" d="M3.5,8h9C12.8,8,13,7.8,13,7.5v-6H3v6C3,7.8,3.2,8,3.5,8z"/>
    <path fill="#A966D8" d="M12.5,9.5H5c-0.3,0-0.5,0.2-0.5,0.6v4.4H13v-4.4C13,9.7,12.8,9.5,12.5,9.5z"/>
    <path fill="#D7D7D7" d="M11,14.5v-4c0-0.3-0.2-0.5-0.5-0.5h-5C5.2,10,5,10.2,5,10.5v4H11z M6,10.5h1.5V14H6V10.5z"/>
</svg>
