<?xml version="1.0" encoding="utf-8"?>
<!-- Copyright (c) 2015 Pixely (https://pixely.jp/) - MIT License -->
<!DOCTYPE svg PUBLIC "-//W3C//DTD SVG 1.1//EN" "http://www.w3.org/Graphics/SVG/1.1/DTD/svg11.dtd" [
    <!ENTITY st0 "fill:#2F2F2F;">
    <!ENTITY st1 "fill:#AAAAAA;">
    <!ENTITY st2 "fill:#E2E2E2;">
    <!ENTITY st3 "fill:#666666;">
    <!ENTITY st4 "fill:#CCCCCC;">
    <!ENTITY st5 "fill:#999999;">
    <!ENTITY st6 "fill:#444444;">
    <!ENTITY st7 "fill:#70B247;">
    <!ENTITY st8 "fill:#FFFFFF;">
]>
<svg version="1.1" xmlns="http://www.w3.org/2000/svg" xmlns:xlink="http://www.w3.org/1999/xlink" x="0px" y="0px"
	 viewBox="0 0 16 16" style="enable-background:new 0 0 16 16;" xml:space="preserve">
    <polygon style="&st0;" points="12.5,15 3.5,15 3.5,11 12.5,11"/>
    <polygon style="&st1;" points="12.5,11 3.5,11 3.5,0.5 12.5,0.5"/>
    <g>
        <rect x="4" y="1" style="&st2;" width="8" height="10"/>
    </g>
    <rect x="4" y="11" style="&st3;" width="8" height="4"/>
    <rect x="4" y="3" style="&st4;" width="8" height="1"/>
    <rect x="4" y="6" style="&st4;" width="8" height="1"/>
    <circle style="&st5;" cx="10.5" cy="8.5" r="0.5"/>
    <polygon style="&st4;" points="12,11 4,11 4,10 12,9"/>
    <polygon style="&st6;" points="12,12 4,13 4,11 12,11"/>
    <rect x="10" y="12" style="&st7;" width="1" height="1"/>
    <rect x="4" y="14" style="&st6;" width="8" height="1"/>
    <polygon style="&st8;" points="4,1 4,2 12,1"/>
</svg>
